# AST/ASF file generated using VICON BodyLanguage
# -----------------------------------------------
:version 1.10
:name VICON
:units
  mass 1.0
  length 0.45
  angle deg
:documentation
   .ast/.asf automatically generated from VICON data using
   VICON BodyBuilder and BodyLanguage model FoxedUp or BRILLIANT.MOD
:root
   order TX TY TZ RX RY RZ
   axis XYZ
   position 0 0 0  
   orientation 0 0 0 
:bonedata
  begin
     id 1 
     name lhipjoint
     direction 0.521452 -0.77106 0.36545 
     length 2.0933 
     axis 0 0 0  XYZ
  end
  begin
     id 2 
     name lfemur
     direction 0.34202 -0.939693 0  
     length 6.83441  
     axis 0 0 20  XYZ
    dof rx ry rz
    limits (-160.0 20.0)
           (-70.0 70.0)
           (-60.0 70.0)
  end
  begin
     id 3 
     name ltibia
     direction 0.34202 -0.939693 0   
     length 7.28749   
     axis 0 0 20   XYZ
    dof rx
    limits (-10.0 170.0)
  end
  begin
     id 4 
     name lfoot
     direction 0.100608 -0.276418 0.955757   
     length 1.52195   
     axis -90 7.62852e-016 20   XYZ
    dof rx rz
    limits (-45.0 90.0)
           (-70.0 20.0)
  end
  begin
     id 5 
     name ltoes
     direction 1.53558e-011 -4.21907e-011 1   
     length 0.770459   
     axis -90 7.62852e-016 20   XYZ
    dof rx
    limits (-90.0 20.0)
  end
  begin
     id 6 
     name rhipjoint
     direction -0.488071 -0.788702 0.373812   
     length 2.04648  
     axis 0 0 0  XYZ 
  end
  begin
     id 7 
     name rfemur
     direction -0.34202 -0.939693 0   
     length 6.92583   
     axis 0 0 -20   XYZ
    dof rx ry rz
    limits (-160.0 20.0)
           (-70.0 70.0)
           (-70.0 60.0)
  end
  begin
     id 8 
     name rtibia
     direction -0.34202 -0.939693 0   
     length 7.41043   
     axis 0 0 -20   XYZ
    dof rx
    limits (-10.0 170.0)
 end
 begin
     id 9 
     name rfoot
     direction -0.0784433 -0.215521 0.973343   
     length 1.67708  
     axis -90 -7.62852e-016 -20   XYZ
    dof rx rz
    limits (-45.0 90.0)
           (-20.0 70.0)
  end
  begin
     id 10 
     name rtoes
     direction -1.53551e-011 -4.21842e-011 1   
     length 0.849787   
     axis -90 -7.62852e-016 -20   XYZ
    dof rx
    limits (-90.0 20.0)
  end
  begin
     id 11 
     name lowerback
     direction -0.0122332 0.997575 -0.0685192   
     length 1.98724   
     axis 0 0 0   XYZ
    dof rx ry rz
    limits (-20.0 45.0)
           (-30.0 30.0)
           (-30.0 30.0)
  end
  begin
     id 12 
     name upperback
     direction 0.0182347 0.999724 -0.0148421   
     length 1.99029   
     axis 0 0 0   XYZ
    dof rx ry rz
    limits (-20.0 45.0)
           (-30.0 30.0)
           (-30.0 30.0)
  end
  begin
     id 13 
     name thorax
     direction 0.0242908 0.99956 0.0170184   
     length 1.99573   
     axis 0 0 0   XYZ
    dof rx ry rz
    limits (-20.0 45.0)
           (-30.0 30.0)
           (-30.0 30.0)
  end
  begin
     id 14 
     name lowerneck
     direction 0.0654488 0.985533 0.156338   
     length 1.4285   
     axis 0 0 0   XYZ
    dof rx ry rz
    limits (-20.0 45.0)
           (-30.0 30.0)
           (-30.0 30.0)
  end
  begin
     id 15 
     name upperneck
     direction -0.02953 0.998556 -0.0448842   
     length 1.44709   
     axis 0 0 0   XYZ
    dof rx ry rz
    limits (-20.0 45.0)
           (-30.0 30.0)
           (-30.0 30.0)
  end
  begin
     id 16
     name head
     direction -0.0155588 0.999386 -0.0314063  
     length 1.44689  
     axis 0 0 0   XYZ
    dof rx ry rz
    limits (-20.0 45.0)
           (-30.0 30.0)
           (-30.0 30.0)
  end
  begin
     id 17 
     name lclavicle
     direction 0.968229 0.236071 -0.0824755  
     length 3.60593  
     axis 0 0 0   XYZ
    dof ry rz
    limits (-20.0 10.0)
           (0.0 20.0)
  end
  begin
     id 18 
     name lhumerus
     direction 1 -4.48968e-011 7.8138e-029   
     length 5.06035   
     axis 180 -30 -90   XYZ
    dof rx ry rz
    limits (-60.0 90.0)
           (-90.0 90.0)
           (-90.0 90.0)
  end
  begin
     id 19
     name lradius
     direction 1 -4.48967e-011 9.02887e-028   
     length 3.1478   
     axis 180 -30 -90   XYZ
    dof rx
    limits (-10.0 170.0)
  end
  begin
     id 20
     name lwrist
     direction 1 -4.48961e-011 7.20928e-028   
     length 1.5739   
     axis -5.52449e-016 90 90   XYZ
    dof ry
    limits (-180.0 0.0)
 end
  begin
     id 21 
     name lhand
     direction 1 -4.48972e-011 1.44186e-027   
     length 0.606747   
     axis -9.20027e-016 90 90   XYZ
    dof rx rz
    limits (-90.0 90.0)
           (-45.0 45.0)
  end
  begin
     id 22 
     name lfingers
     direction 1 -4.48943e-011 2.88371e-027   
     length 0.489175   
     axis -1.84005e-015 90 90   XYZ
    dof rx
    limits (0.0 90.0)
  end
  begin
     id 23
     name lthumb
     direction 0.707107 -6.34917e-011 0.707107   
     length 0.70236   
     axis -90 45 2.85299e-015   XYZ
    dof rx rz
    limits (-45.0 45.0)
           (-45.0 45.0)
  end
  begin
     id 24 
     name rclavicle
     direction -0.978165 0.207816 0.0022268   
     length 3.35425  
     axis 0 0 0   XYZ 
    dof ry rz
    limits (-10.0 20.0)
           (-20.0 0.0)
  end
  begin
     id 25 
     name rhumerus
     direction -1 -4.48964e-011 -4.02159e-027  
     length 5.12273   
     axis 180 30 90   XYZ
    dof rx ry rz
    limits (-90.0 60.0)
           (-90.0 90.0)
           (-90.0 90.0)
  end
  begin
     id 26 
     name rradius
     direction -1 -4.48966e-011 1.62746e-027   
     length 3.422   
     axis 180 30 90   XYZ
    dof rx
    limits (-10.0 170.0)
  end
  begin
     id 27 
     name rwrist
     direction -1 -4.4896e-011 7.20928e-028   
     length 1.711   
     axis -5.52449e-016 -90 -90   XYZ
    dof ry
    limits (-180.0 0.0)
  end
  begin
     id 28
     name rhand
     direction -1 -4.48979e-011 1.44186e-027   
     length 0.704599   
     axis -9.20027e-016 -90 -90   XYZ
    dof rx rz
    limits (-90.0 90.0)
           (-45.0 45.0)
  end
  begin
     id 29
     name rfingers
     direction -1 -4.48962e-011 2.88371e-027   
     length 0.568066   
     axis -1.84005e-015 -90 -90   XYZ
    dof rx
    limits (0.0 90.0)
  end
  begin
     id 30
     name rthumb
     direction -0.707107 -6.34949e-011 0.707107   
     length 0.815633   
     axis -90 -45 -2.85299e-015   XYZ
    dof rx rz
    limits (-45.0 45.0)
           (-45.0 45.0)
  end
:hierarchy
  begin
    root lhipjoint rhipjoint lowerback
    lhipjoint lfemur
    lfemur ltibia
    ltibia lfoot
    lfoot ltoes
    rhipjoint rfemur
    rfemur rtibia
    rtibia rfoot
    rfoot rtoes
    lowerback upperback
    upperback thorax
    thorax lowerneck lclavicle rclavicle
    lowerneck upperneck
    upperneck head
    lclavicle lhumerus
    lhumerus lradius
    lradius lwrist
    lwrist lhand lthumb
    lhand lfingers
    rclavicle rhumerus
    rhumerus rradius
    rradius rwrist
    rwrist rhand rthumb
    rhand rfingers
  end

#!OML:ASF E:\id_vita\Project 1\Capture day 1\Session 1\Male1.ASF
:FULLY-SPECIFIED
:DEGREES
44
root -23.2235 16.0196 3.58077 -176.599 5.10104 -180.224
lowerback -5.14239 0.493997 -5.11538
upperback -0.173981 0.968897 0.37046
thorax 2.61598 0.426819 3.32604
lowerneck -1.32936 -1.31924 7.16303
upperneck -11.9137 -0.274694 4.11657
head -3.67244 -0.211365 0.100773
rclavicle -3.15881e-015 -8.74653e-015
rhumerus -26.96 -27.1154 -79.1226
rradius 16.3696
rwrist 23.8017
rhand -13.542 23.6541
rfingers 7.12502
rthumb 12.5707 -5.94771
lclavicle -3.15881e-015 -8.74653e-015
lhumerus -29.2803 37.5479 72.1541
lradius 10.0861
lwrist -30.3526
lhand -11.8994 44.0898
lfingers 7.12502
lthumb 14.1539 73.5876
rfemur -9.19663 7.21018 7.02645
rtibia 15.8226
rfoot -1.67922 -14.5783
rtoes -16.9002
lfemur -9.55168 3.56869 -24.1302
ltibia 28.9814
lfoot -21.1328 20.7221
ltoes 11.8703
45
root -23.223 16.0242 3.58204 -176.544 5.46267 -180.327
lowerback -5.15701 0.379061 -5.27507
upperback -0.162852 0.819477 0.549735
thorax 2.64521 0.347572 3.59187
lowerneck -1.299 -1.28036 6.73424
upperneck -11.7641 -0.238727 4.35745
head -3.61869 -0.188641 0.252465
rclavicle 1.66482e-015 -1.50082e-014
rhumerus -26.9321 -27.1317 -78.763
rradius 16.5071
rwrist 24.1108
rhand -13.3781 24.3609
rfingers 7.12502
rthumb 12.7287 -5.23113
lclavicle 1.66482e-015 -1.50082e-014
lhumerus -29.8439 39.0722 71.6401
lradius 10.0035
lwrist -31.7224
lhand -12.0794 44.0922
lfingers 7.12502
lthumb 13.9805 73.6021
rfemur -9.77168 7.21821 6.83967
rtibia 16.2844
rfoot -2.27714 -14.2637
rtoes -14.4138
lfemur -9.63044 3.82944 -24.3018
ltibia 28.7472
lfoot -20.7323 21.2123
ltoes 10.6114
46
root -23.2263 16.0442 3.58591 -176.514 5.62957 -180.482
lowerback -5.10651 0.224454 -5.41754
upperback -0.162082 0.616214 0.622257
thorax 2.63605 0.244076 3.73253
lowerneck -1.29168 -1.26395 6.58827
upperneck -11.57 -0.235378 4.52233
head -3.54938 -0.187902 0.330845
rclavicle 1.15233e-014 8.54774e-015
rhumerus -26.5275 -26.5885 -78.6857
rradius 15.9477
rwrist 23.62
rhand -13.4857 26.1499
rfingers 7.12502
rthumb 12.625 -3.44856
lclavicle 1.15233e-014 8.54774e-015
lhumerus -29.7151 38.8093 72.0488
lradius 9.96214
lwrist -31.3103
lhand -12.1353 44.2304
lfingers 7.12502
lthumb 13.9266 73.744
rfemur -10.0634 6.12099 6.77018
rtibia 16.8514
rfoot -3.36807 -13.2887
rtoes -12.2613
lfemur -9.56244 3.83635 -24.5039
ltibia 28.4851
lfoot -20.4613 21.3846
ltoes 10.6051
47
root -23.2227 16.0418 3.60109 -176.192 5.80548 -180.587
lowerback -5.24108 0.117423 -5.46699
upperback -0.209292 0.485922 0.604632
thorax 2.67618 0.179393 3.73397
lowerneck -1.38463 -1.28938 6.71309
upperneck -11.4002 -0.270465 4.68685
head -3.47393 -0.208509 0.363163
rclavicle 3.99588e-015 2.08724e-015
rhumerus -25.892 -25.4509 -79.1927
rradius 15.6557
rwrist 22.2338
rhand -14.0204 26.0074
rfingers 7.12502
rthumb 12.1095 -3.62222
lclavicle 3.99588e-015 2.08724e-015
lhumerus -29.4609 38.306 72.3876
lradius 9.98199
lwrist -30.9826
lhand -11.8844 44.0903
lfingers 7.12502
lthumb 14.1684 73.5871
rfemur -10.8356 5.72161 6.63218
rtibia 17.3118
rfoot -3.4687 -13.0135
rtoes -12.6455
lfemur -9.90266 4.06917 -24.6394
ltibia 28.2737
lfoot -20.1014 21.3808
ltoes 10.0244
48
root -23.2116 16.0417 3.61548 -176.046 6.24243 -180.579
lowerback -5.21625 0.0899159 -5.50364
upperback -0.209786 0.449252 0.619445
thorax 2.66522 0.160795 3.76713
lowerneck -1.55596 -1.3062 6.92915
upperneck -11.1466 -0.320048 4.76391
head -3.35558 -0.234383 0.350674
rclavicle 1.27051e-014 4.17448e-015
rhumerus -25.6899 -25.1203 -79.4515
rradius 15.9408
rwrist 21.7987
rhand -13.6346 25.5464
rfingers 7.12502
rthumb 12.4814 -4.06092
lclavicle 1.27051e-014 4.17448e-015
lhumerus -29.4009 37.7286 72.4081
lradius 10.0854
lwrist -30.5217
lhand -11.7553 43.8959
lfingers 7.12502
lthumb 14.2928 73.384
rfemur -11.3684 5.6602 6.69192
rtibia 17.623
rfoot -3.46815 -12.7481
rtoes -13.9155
lfemur -10.0519 4.74878 -24.6156
ltibia 28.1572
lfoot -19.8296 21.277
ltoes 8.86822
49
root -23.2071 16.0408 3.62157 -175.912 6.71667 -180.415
lowerback -5.27577 0.105863 -5.2285
upperback -0.214258 0.458034 0.596053
thorax 2.69506 0.16795 3.58881
lowerneck -1.43828 -1.2876 7.06994
upperneck -11.0334 -0.257398 5.04058
head -3.33952 -0.21328 0.415392
rclavicle 1.63904e-014 -1.37161e-014
rhumerus -25.9257 -25.959 -79.2991
rradius 16.2906
rwrist 22.1976
rhand -12.9804 25.9036
rfingers 7.12502
rthumb 13.1121 -3.66423
lclavicle 1.63904e-014 -1.37161e-014
lhumerus -28.498 33.4768 74.1558
lradius 10.5294
lwrist -26.173
lhand -11.6685 44.1288
lfingers 7.12502
lthumb 14.3764 73.6109
rfemur -11.7379 5.62138 6.89985
rtibia 17.6263
rfoot -3.20539 -12.4039
rtoes -14.8338
lfemur -10.2088 4.74803 -24.5097
ltibia 28.2115
lfoot -19.6057 21.8918
ltoes 8.26232
50
root -23.2024 16.0425 3.63149 -175.959 7.1868 -180.33
lowerback -5.03926 0.19533 -5.12426
upperback -0.209019 0.553348 0.675839
thorax 2.5581 0.218963 3.61724
lowerneck -1.35945 -1.37144 6.91113
upperneck -10.9053 -0.35763 5.31458
head -3.30874 -0.265252 0.534136
rclavicle -2.4171e-014 -5.66536e-015
rhumerus -25.8286 -25.6341 -79.3579
rradius 16.7535
rwrist 22.3196
rhand -13.1782 23.5421
rfingers 7.12502
rthumb 12.9215 -6.03788
lclavicle -2.4171e-014 -5.66536e-015
lhumerus -28.954 35.7253 73.2352
lradius 10.1629
lwrist -28.9179
lhand -11.7107 43.9108
lfingers 7.12502
lthumb 14.3358 73.3958
rfemur -11.8733 5.95336 7.00156
rtibia 17.6463
rfoot -3.35908 -12.3542
rtoes -13.6112
lfemur -10.186 4.65904 -24.4261
ltibia 28.2461
lfoot -19.6459 22.3542
ltoes 8.75894
51
root -23.1991 16.0486 3.64437 -176.012 7.78967 -180.358
lowerback -4.71828 0.202828 -5.35681
upperback -0.266272 0.550525 0.869895
thorax 2.31508 0.221569 3.94595
lowerneck -1.09115 -1.28511 6.7474
upperneck -10.722 -0.236225 5.53406
head -3.29254 -0.21298 0.630746
rclavicle -1.78013e-014 -5.31749e-015
rhumerus -25.8899 -26.2861 -78.603
rradius 15.6251
rwrist 21.0685
rhand -14.4368 28.0612
rfingers 7.12502
rthumb 11.7079 -1.59165
lclavicle -1.78013e-014 -5.31749e-015
lhumerus -28.8227 33.0496 74.5747
lradius 10.6754
lwrist -26.046
lhand -11.7222 44.1125
lfingers 7.12502
lthumb 14.3247 73.5983
rfemur -12.0953 6.35747 6.97224
rtibia 17.6699
rfoot -3.5636 -12.231
rtoes -13.0516
lfemur -10.1496 4.58624 -24.4704
ltibia 28.2504
lfoot -19.8268 22.7321
ltoes 9.77223
52
root -23.2013 16.0508 3.65167 -175.976 8.1045 -180.359
lowerback -4.60781 0.164494 -5.07099
upperback -0.254914 0.479298 0.799556
thorax 2.27515 0.189858 3.70583
lowerneck -0.995987 -1.26736 6.47427
upperneck -10.4979 -0.172653 6.09566
head -3.23153 -0.180726 0.857869
rclavicle 1.88286e-014 -1.23992e-014
rhumerus -25.5239 -24.8225 -79.4321
rradius 16.9461
rwrist 21.2406
rhand -13.6057 23.9161
rfingers 7.12502
rthumb 12.5093 -5.68951
lclavicle 1.88286e-014 -1.23992e-014
lhumerus -28.1194 29.4438 76.1564
lradius 11.0314
lwrist -22.4528
lhand -11.7262 44.6129
lfingers 7.12502
lthumb 14.3208 74.0991
rfemur -12.3161 6.54765 6.94012
rtibia 17.7294
rfoot -3.81236 -12.1834
rtoes -12.4008
lfemur -10.1716 4.24431 -24.5269
ltibia 28.2055
lfoot -19.7313 23.21
ltoes 10.4943
53
root -23.1987 16.0502 3.65205 -175.882 8.04758 -180.467
lowerback -4.79542 -0.0639234 -5.10618
upperback -0.141573 0.186762 0.838544
thorax 2.52722 0.0333512 3.74903
lowerneck -0.945891 -1.28794 6.49749
upperneck -10.4489 -0.198675 6.17087
head -3.22426 -0.1985 0.879156
rclavicle 2.25801e-014 1.82633e-015
rhumerus -25.1108 -24.3791 -79.6436
rradius 16.925
rwrist 20.9965
rhand -13.0004 24.5758
rfingers 7.12502
rthumb 13.0928 -4.99326
lclavicle 2.25801e-014 1.82633e-015
lhumerus -27.7635 28.4215 76.7555
lradius 11.0675
lwrist -21.4175
lhand -11.877 45.0013
lfingers 7.12502
lthumb 14.1755 74.4976
rfemur -12.4636 6.4329 6.84871
rtibia 17.8228
rfoot -3.99569 -12.3336
rtoes -12.163
lfemur -10.2448 4.07767 -24.6318
ltibia 28.1017
lfoot -19.4199 23.3246
ltoes 10.7517
54
root -23.1924 16.0523 3.65825 -175.825 8.27878 -180.661
lowerback -4.80124 -0.14239 -5.41846
upperback -0.117875 0.0982177 0.898403
thorax 2.56394 -0.0166666 3.98172
lowerneck -1.01328 -1.44305 6.85661
upperneck -10.1955 -0.482939 5.88536
head -3.12618 -0.344982 0.72922
rclavicle 1.52971e-015 5.39203e-015
rhumerus -24.7029 -23.1334 -79.8754
rradius 16.7519
rwrist 19.6213
rhand -13.7807 24.048
rfingers 7.12502
rthumb 12.3405 -5.56784
lclavicle 1.52971e-015 5.39203e-015
lhumerus -27.8407 29.3108 76.5031
lradius 10.8686
lwrist -22.5646
lhand -12.3418 45.0813
lfingers 7.12502
lthumb 13.7276 74.6085
rfemur -12.7138 6.49362 6.65256
rtibia 17.9506
rfoot -4.14638 -12.2972
rtoes -11.9943
lfemur -10.279 4.01619 -24.8563
ltibia 27.9591
lfoot -19.1235 23.642
ltoes 10.7332
